<svg id="white-bg-standard" xmlns="http://www.w3.org/2000/svg" viewBox="0 0 535 192"><defs><style>.cls-1{fill:#0f6bff;}.cls-2{fill:#1738ff;}</style></defs><path d="M244.89,76.21l13.59-7.87c2.46,5.71,6.69,9.55,14.47,9.55,7.48,0,9.35-3,9.35-5.61,0-4.24-3.94-5.91-14.27-8.77s-20.29-7.77-20.29-21,11.23-21,23.14-21c11.32,0,20.18,5.42,25.2,15.56l-13.29,7.78c-2.36-4.93-5.61-8-11.91-8-4.92,0-7.38,2.46-7.38,5.22,0,3.15,1.67,5.32,12.4,8.57,10.44,3.15,22.15,6.79,22.15,21.36,0,13.29-10.63,21.17-25.59,21.17C258,93.25,248.73,86.35,244.89,76.21Z"/><path d="M336,91.87,320.2,70.11V91.87H305.43V23H320.2V64.2L335,42.64h17.22L334.28,67.26l18.41,24.61Z"/><path d="M356.62,29.45a8.86,8.86,0,1,1,8.86,8.86h0A9,9,0,0,1,356.62,29.45Zm1.48,13.19h14.76V91.87H358.1Z"/><path d="M383.69,20h14.77V91.87H383.69Z"/><path d="M409.29,20h14.76V91.87H409.29Z"/><path d="M244.89,155l13.59-7.88c2.46,5.71,6.69,9.55,14.47,9.55,7.48,0,9.35-2.95,9.35-5.61,0-4.23-3.94-5.91-14.27-8.76s-20.29-7.78-20.29-21,11.23-21,23.14-21c11.32,0,20.18,5.41,25.2,15.55l-13.29,7.78c-2.36-4.92-5.61-8-11.91-8-4.92,0-7.38,2.46-7.38,5.21,0,3.16,1.67,5.32,12.4,8.57,10.44,3.15,22.15,6.79,22.15,21.36,0,13.29-10.63,21.17-25.59,21.17C258,172,248.73,165.11,244.89,155Z"/><path d="M322.66,135.57V153c0,4.23,3.64,4.63,10.14,4.23v13.39c-19.3,2-24.91-3.84-24.91-17.62V135.57H300V121.4h7.87v-9.35l14.77-4.44V121.4H332.8v14.17Z"/><path d="M371.68,120.41v16.74c-6.1-1-14.76,1.48-14.76,11.22v22.25H342.15V121.4h14.77v8.76C358.89,123.56,365.48,120.41,371.68,120.41Z"/><path d="M425.14,121.4v49.22H410.37V166c-2.66,3.65-7.58,6-14.08,6-9.94,0-18.41-7.09-18.41-20.38V121.4h14.77v28.06c0,6.1,3.84,8.95,8.57,8.95,5.41,0,9.15-3.15,9.15-10.14V121.4Z"/><path d="M433.5,146c0-14.67,11.13-26,26.09-26a25.34,25.34,0,0,1,22.25,12.6l-12.9,7.48c-1.67-3.44-5.21-5.51-9.54-5.51-6.4,0-11.13,4.63-11.13,11.42s4.73,11.42,11.13,11.42c4.33,0,8-2.07,9.54-5.51l12.9,7.38A25.11,25.11,0,0,1,459.59,172C444.63,172,433.5,160.68,433.5,146Z"/><path d="M518.26,170.62l-15.75-21.76v21.76H487.74V101.71h14.77V143l14.77-21.56h17.23L516.59,146,535,170.62Z"/><path class="cls-1" d="M6.92,24.07H6.76L7.17,24ZM190.8,3.78A8,8,0,0,0,182.92.07L7.17,24a8.06,8.06,0,0,1,2.68.18L158.67,59.65l32-47.16A8,8,0,0,0,190.8,3.78Z"/><path class="cls-2" d="M96,192h-.63a8,8,0,0,1-6.53-4.4L62.25,134.39l-29.06-10.9a8,8,0,0,1-4.78-5l-28-84A8,8,0,0,1,9.85,24.22l168,40a8,8,0,0,1,4.66,12.43l-80,112A8,8,0,0,1,96,192Z"/></svg>